@startuml
title
    <img:assets/logos/calypso.svg{scale=0.2}>

    Terminal Storage Card API - 2.0.+ (2026-06-15)
end title

' == THEME (class) ==

'Couleurs issues de : https://htmlcolorcodes.com/fr/tableau-de-couleur/tableau-de-couleur-design-plat/
!define C_GREY1 F8F9F9
!define C_GREY2 F2F3F4
!define C_GREY3 E5E7E9
!define C_GREY4 D7DBDD
!define C_GREY5 CACFD2
!define C_GREY6 BDC3C7
!define C_LINK 3498DB
!define C_USE 27AE60
!define C_THROW 2C3E50

' -- Styles that don't work with new version of plantuml --
skinparam stereotypeABorderColor #A9DCDF
skinparam stereotypeIBorderColor #B4A7E5
skinparam stereotypeCBorderColor #ADD1B2
skinparam stereotypeEBorderColor #EB937F
' -- END --

skinparam ClassBorderThickness 2
skinparam ArrowThickness 2

' Yellow
skinparam ClassBackgroundColor #FEFECE
skinparam ClassBorderColor #D4AC0D
' Red
skinparam ClassBackgroundColor<<red>> #FDEDEC
skinparam ClassBorderColor<<red>> #E74C3C
hide <<red>> stereotype
' Purple
skinparam ClassBackgroundColor<<purple>> #F4ECF7
skinparam ClassBorderColor<<purple>> #8E44AD
hide <<purple>> stereotype
' blue
skinparam ClassBackgroundColor<<blue>> #EBF5FB
skinparam ClassBorderColor<<blue>> #3498DB
hide <<blue>> stereotype
' Green
skinparam ClassBackgroundColor<<green>> #E9F7EF
skinparam ClassBorderColor<<green>> #27AE60
hide <<green>> stereotype
' Grey
skinparam ClassBackgroundColor<<grey>> #EAECEE
skinparam ClassBorderColor<<grey>> #2C3E50
hide <<grey>> stereotype

' == CONTENT ==

legend top
    * __External public API references__
    *** <back:yellow>**Calypsonet Terminal Reader API**</back>
    * __Text__
    *** <color:blue><b>New element added since the last version
    *** <color:red><s><b>Element marked as deprecated since the last version
    *** <s><b>Element marked as deprecated
    *** <color:grey><b>Work in progress...
    * __Object__
    *** <back:#EBF5FB><color:#3498DB><b>Factory or interface provided by the factory
    *** <back:#FEFECE><color:#D4AC0D><b>Interface that cannot be instantiated directly by the factory
    *** <back:#FDEDEC><color:#E74C3C><b>SPI (Service Provider Interface) to be provided by the end-user
    *** <back:#E9F7EF><color:#27AE60><b>Data, constants, enumeration or error
end legend

package "terminal.storagecard" as root {
    class "StorageCardApiProperties" as ApiProperties <<constants>> <<green>> {
        +const VERSION: String = "2.0"
    }
    interface "StorageCardApiFactory" as StorageCardApiFactory <<blue>> {
        +createStorageCardSelectionExtension(productType: StorageCardProductType) → StorageCardSelectionExtension

        +createStorageCardTransactionManager(reader: <back:yellow>CardReader</back>, card: StorageCard, <color:blue>securitySettings: StorageCardSecuritySettings</color>) → StorageCardTransactionManager
    }

    package "card" as card {
        interface "«<back:yellow>CardSelectionExtension</back>»\nStorageCardSelectionExtension" as StorageCardSelectionExtension <<blue>> {
            +prepareReadBlock(blockAddress: Int) → Self
            +prepareReadBlocks(fromBlockAddress: Int, toBlockAddress: Int) → Self
            .. **ST25 / SRT512** ..
            +prepareSt25ReadSystemBlock() → Self
            .. **Mifare Classic** ..
            +<color:blue>prepareMifareClassicAuthenticateWithKey(blockAddress: Int, mifareClassicKeyType: MifareClassicKeyType, key: ByteArray) → Self
            +<color:blue>prepareMifareClassicAuthenticateWithKeyNumber(blockAddress: Int, mifareClassicKeyType: MifareClassicKeyType, keyNumber: Int) → Self
        }
        interface "«<back:yellow>SmartCard</back>»\nStorageCard" as StorageCard {
            +getProductType() → StorageCardProductType
            +getUid() → ByteArray
            +getBlock(blockAddress: Int) → ByteArray?
            +getBlocks(fromBlockAddress: Int, toBlockAddress: Int) → ByteArray?
            .. **ST25 / SRT512** ..
            +getSystemBlock() → ByteArray?
        }
        enum "StorageCardProductType" as StorageCardProductType <<green>> {
            +MIFARE_ULTRALIGHT
            +MIFARE_CLASSIC_1K
            +MIFARE_CLASSIC_4K
            +ST25_SRT512
            .. **Properties** ..
            +val blockCount: Int
            +val blockSize: Int
            +val hasSystemBlock: Boolean
            +val hasWriteAcknowledgment: Boolean
            +val hasAuthentication: Boolean
        }
    }

    enum "MifareClassicKeyType" as MifareClassicKeyType <<green>> {
        +KEY_A
        +KEY_B
    }

    package "transaction" as transaction {
        class "<color:blue>StorageCardSecuritySettings" as StorageCardSecuritySettings <<data>> <<green>> {
            +{field} <color:blue>val readCommandMaxDurations: Map<StorageCardProductType, Long> = emptyMap()
        }
        interface "«<back:yellow>CardTransactionManager</back>»\nStorageCardTransactionManager" as StorageCardTransactionManager <<blue>> {
            ' Standard Read/Write
            +prepareReadBlock(blockAddress: Int) → Self
            +prepareReadBlocks(fromBlockAddress: Int, toBlockAddress: Int) → Self
            +<color:blue>prepareWriteBlocks(commandId: Int, fromBlockAddress: Int, data: ByteArray) → Self
            .. **ST25 / SRT512** ..
            +prepareSt25ReadSystemBlock() → Self
            +<color:blue>prepareSt25WriteSystemBlock(commandId: Int, data: ByteArray) → Self
            .. **Mifare Classic** ..
            +<color:blue>prepareMifareClassicAuthenticateWithKey(blockAddress: Int, mifareClassicKeyType: MifareClassicKeyType, key: ByteArray) → Self
            +<color:blue>prepareMifareClassicAuthenticateWithKeyNumber(blockAddress: Int, mifareClassicKeyType: MifareClassicKeyType, keyNumber: Int) → Self
        }
    }

    exception "StorageCardReaderCommunication: <back:yellow>ReaderCommunication</back>\nStorageCardCardCommunication: <back:yellow>CardCommunication</back>\nStorageCardInvalidCardResponse: <back:yellow>InvalidCardResponse</back>\nStorageCardAuthenticationFailed" as errors <<error>> <<green>> {
        +val message: String
        +val cause: Any?
        +val blockAddress: Int?
        +val commandId: Int?
    }
}

' Associations
StorageCardApiFactory ..> StorageCardSelectionExtension #C_LINK : create >
StorageCardApiFactory ..> StorageCardTransactionManager #C_LINK : create >
StorageCardApiFactory ..> StorageCardSecuritySettings #C_USE : use >
StorageCardApiFactory ..> StorageCard #C_USE : use >
StorageCardApiFactory ..> StorageCardProductType #C_USE : use >
StorageCard ..> StorageCardProductType #C_LINK : provide >
StorageCardSelectionExtension ..> MifareClassicKeyType #C_USE : use >
StorageCardTransactionManager ..> MifareClassicKeyType #C_USE : use >

' == LAYOUT ==

StorageCardTransactionManager -[hidden]up- StorageCardSecuritySettings

' == STYLE ==

package root #C_GREY1 {}
package root.card #C_GREY2 {}
package root.transaction #C_GREY2 {}

@enduml